<?xml version="1.0" encoding="utf-8"?>
<!-- Generator: Adobe Illustrator 19.2.0, SVG Export Plug-In . SVG Version: 6.00 Build 0)  -->
<svg version="1.1" id="Layer_1" xmlns="http://www.w3.org/2000/svg" xmlns:xlink="http://www.w3.org/1999/xlink" x="0px" y="0px"
	 viewBox="0 0 110 110" style="enable-background:new 0 0 110 110;" xml:space="preserve">
<style type="text/css">
	.st0{opacity:0.76;}
	.st1{fill:none;stroke:#3F6475;stroke-width:2;stroke-miterlimit:10;}
</style>
<g class="st0">
	<g>
		<polygon class="st1" points="40.2,81.1 29.9,70.9 86.7,14.1 97,13.9 96.9,24.4 		"/>
		<line class="st1" x1="91.9" y1="19.1" x2="35" y2="76"/>
	</g>
	<polyline class="st1" points="26.9,63.1 26.8,67.8 43.5,84.5 47.9,84.2 	"/>
	<g>
		<line class="st1" x1="38.2" y1="79.2" x2="21.6" y2="95.7"/>
		<line class="st1" x1="15.3" y1="89.4" x2="31.8" y2="72.8"/>
	</g>
	<polygon class="st1" points="22.4,97.5 13.5,97.5 13.5,88.5 19.6,91.3 	"/>
	<polyline class="st1" points="19.2,85.4 23.6,87.5 25.6,91.8 	"/>
	<polyline class="st1" points="23.1,81.5 27.6,83.5 29.5,87.8 	"/>
	<polyline class="st1" points="27.1,77.5 31.5,79.5 33.5,83.9 	"/>
	<line class="st1" x1="60.4" y1="60.8" x2="75.6" y2="75.9"/>
	<line class="st1" x1="55.3" y1="65.9" x2="70.4" y2="81.1"/>
	<line class="st1" x1="65.6" y1="55.7" x2="80.7" y2="70.8"/>
	<line class="st1" x1="18.6" y1="19" x2="50.2" y2="50.5"/>
	<polyline class="st1" points="62.7,84.1 67.3,84.1 84,67.5 83.7,63.1 	"/>
	<g>
		<line class="st1" x1="78.7" y1="72.7" x2="95.3" y2="89.3"/>
		<line class="st1" x1="88.9" y1="95.7" x2="72.3" y2="79.1"/>
	</g>
	<polygon class="st1" points="97.1,88.5 97.1,97.5 88.1,97.5 90.9,91.3 	"/>
	<polyline class="st1" points="45.1,55.7 13.7,24.3 13.5,13.9 23.9,14 55.3,45.4 	"/>
	<polyline class="st1" points="85.1,91.9 87.1,87.5 91.5,85.5 	"/>
	<polyline class="st1" points="81.2,88 83.2,83.5 87.5,81.6 	"/>
	<polyline class="st1" points="77.2,84 79.2,79.6 83.6,77.6 	"/>
</g>
</svg>
